<svg xmlns="http://www.w3.org/2000/svg" xmlns:xlink="http://www.w3.org/1999/xlink" width="1152" height="576" viewBox="0 0 304.8 152.4" xmlns:v="https://vecta.io/nano"><path d="M0 0h285.75v152.4H0z" fill="#202020"/><path d="M285.75 0h19.05v19.05h-19.05z" fill="#fc4651"/><path d="M289.597 13.476v-.847h1.366V6.466l-1.479.587v-.914l1.366-.564h1.072v7.056h1.118v.847zm5.001 0v-1.129h1.129v1.129zm6.468-1.919q0 .937-.519 1.434-.508.485-1.377.485h-.113q-.869 0-1.389-.485-.508-.497-.508-1.434V7.493q0-.948.508-1.434.508-.485 1.389-.485h.113q.881 0 1.389.485.508.485.508 1.434zm-.96-4.278q0-.35-.271-.598-.26-.26-.666-.26h-.113q-.406 0-.677.26-.26.248-.26.598v4.493q0 .35.26.61.271.248.677.248h.113q.406 0 .666-.248.271-.26.271-.61zM285.75 19.05h19.05V152.4h-19.05z" fill="#f5f5f5"/><path d="M0 0v2.982L149.419 152.4h2.981L0 0zm11.204 0l152.401 152.4h2.981L14.186 0h-2.982zm14.199 0l152.401 152.4h2.981L28.384 0h-2.982zm14.199 0l152.4 152.4h2.981L42.583 0h-2.982zM53.8 0l152.4 152.4h2.981L56.782 0H53.8zm14.199 0l152.4 152.4h2.981L70.98 0h-2.982zm14.199 0l152.4 152.4h2.981L85.179 0h-2.982zm14.199 0l152.399 152.4h2.982L99.377 0h-2.982zm14.199 0l152.399 152.4h2.982L113.576 0h-2.982zm14.199 0l152.399 152.4h2.982L127.774 0h-2.981zm14.199 0L285.75 146.759v-2.982L141.973 0h-2.981zm14.199 0l132.56 132.56v-2.982L156.171 0h-2.981zm14.199 0L285.75 118.362v-2.982L170.37 0h-2.981zm14.199 0L285.75 104.163v-2.981L184.569 0h-2.981zm14.199 0l89.964 89.964v-2.981L198.767 0h-2.981zm14.199 0l75.765 75.765v-2.981L212.966 0h-2.981zm14.199 0l61.567 61.567v-2.981L227.164 0h-2.981zm14.199 0l47.368 47.368v-2.981L241.363 0h-2.981zm14.199 0l33.17 33.17v-2.981L255.562 0h-2.981zm14.199 0l18.971 18.971V15.99L269.76 0h-2.981zm14.199 0l4.772 4.772V1.791L283.959 0h-2.981zM0 14.199v2.982L135.22 152.4h2.981L0 14.199zm0 14.199v2.982L121.022 152.4h2.981L0 28.397zm0 14.199v2.982L106.823 152.4h2.981L0 42.596zm0 14.199v2.982L92.624 152.4h2.981L0 56.794zm0 14.199v2.982L78.426 152.4h2.981L0 70.993zm0 14.199v2.982L64.227 152.4h2.981L0 85.192zM0 99.39v2.982L50.028 152.4h2.981L0 99.39zm0 14.199v2.981l35.83 35.83h2.981L0 113.589zm0 14.199v2.981L21.631 152.4h2.981L0 127.788zm0 14.199v2.981l7.433 7.433h2.981L0 141.986z" fill="#2c2c2c"/><g transform="translate(-9.522)" fill="#f5f5f5"><path d="M88.324 77.099h7.078a2.35 2.35 0 0 0 1.727-.711 2.46 2.46 0 0 0 .745-1.761V62.638a2.46 2.46 0 0 0-.745-1.761 2.35 2.35 0 0 0-1.727-.711h-3.895v-8.467l-3.183.711zm3.183-3.183V63.349h1.93c.339 0 .61.135.881.373.237.237.373.508.373.847v8.128a1.23 1.23 0 0 1-.373.881c-.271.237-.542.339-.881.339zm10.872 3.183h7.078l-.711-3.183h-4.403c-.373 0-.677-.102-.914-.339s-.339-.542-.339-.881v-2.472h3.895c.677 0 1.287-.237 1.761-.711s.711-1.084.711-1.761v-5.148a2.35 2.35 0 0 0-.711-1.727c-.474-.474-1.084-.711-1.761-.711h-4.606c-.677 0-1.287.237-1.761.711a2.35 2.35 0 0 0-.711 1.727v12.023c0 .677.237 1.287.711 1.761s1.084.711 1.761.711zm.711-10.058v-2.472c0-.339.102-.61.339-.847a1.25 1.25 0 0 1 .914-.373h.711a1.15 1.15 0 0 1 .847.373c.237.238.373.508.373.847v1.253a1.23 1.23 0 0 1-.373.881c-.237.237-.508.339-.847.339z"/><use xlink:href="#A"/><path d="M123.884 55.39l3.183-.745v-3.183l-3.183.745zm-3.827 30.141h4.538c.677 0 1.287-.237 1.761-.711s.711-1.05.711-1.761V60.166l-3.183.711v20.252c0 .339-.135.61-.339.847-.237.271-.542.373-.881.373h-.643c-.373 0-.677-.102-.914-.373-.237-.237-.339-.508-.339-.847v-1.016l-3.183-.711v3.658c0 .711.237 1.287.711 1.761s1.05.711 1.761.711zm9.381-29.903l3.183-.745V51.7l-3.183.745zm.068 21.471h3.183V60.166l-3.183.745zm7.993 0h4.64c.643 0 1.219-.203 1.693-.677a2.43 2.43 0 0 0 .745-1.659v-5.249a2.35 2.35 0 0 0-.711-1.727c-.474-.474-1.05-.745-1.727-.745h-2.675c-.339 0-.643-.102-.881-.339-.271-.237-.373-.542-.373-.881v-1.253a1.04 1.04 0 0 1 .373-.847 1.23 1.23 0 0 1 .881-.373h.711a1.15 1.15 0 0 1 .847.373c.237.238.373.508.373.847v.881h3.183v-2.811a2.35 2.35 0 0 0-.711-1.727c-.474-.474-1.05-.745-1.727-.745h-4.64c-.677 0-1.253.271-1.727.745a2.35 2.35 0 0 0-.711 1.727v5.114c0 .677.237 1.287.711 1.761a2.35 2.35 0 0 0 1.727.711h2.675a1.15 1.15 0 0 1 .847.373c.237.238.373.508.373.847v1.253a1.23 1.23 0 0 1-.373.881c-.237.237-.508.339-.847.339h-.711c-.339 0-.643-.102-.881-.339-.271-.237-.373-.542-.373-.881v-.881h-3.15v2.811c0 .677.237 1.287.711 1.761a2.35 2.35 0 0 0 1.727.711zm9.11 0h3.183v-13.75h3.285l.745-3.183h-4.03v-8.433l-3.183.711zm10.634 0h4.606a2.35 2.35 0 0 0 1.727-.711c.474-.474.711-1.084.711-1.761V62.638a2.35 2.35 0 0 0-.711-1.727c-.474-.474-1.05-.745-1.727-.745h-4.606c-.711 0-1.287.271-1.761.745a2.35 2.35 0 0 0-.711 1.727v11.989c0 .677.237 1.287.711 1.761s1.05.711 1.761.711zm1.93-3.183c-.339 0-.643-.102-.881-.339s-.339-.542-.339-.881v-8.128c0-.339.102-.61.339-.847a1.23 1.23 0 0 1 .881-.373h.711c.339 0 .61.135.881.373.237.237.373.508.373.847v8.128a1.23 1.23 0 0 1-.373.881c-.271.237-.542.339-.881.339zm7.518 3.183h3.183l1.592-4.267 1.592 4.267h3.183l-3.183-8.467 3.183-8.467h-3.183l-3.183 8.467V51.665l-3.183.745zm11.143 0h3.183v-13.75h1.93c.339 0 .61.135.881.373.237.237.373.508.373.847V77.1h3.183V63.35h1.93c.339 0 .61.135.881.373.237.237.373.508.373.847v12.531h3.15V62.638a2.35 2.35 0 0 0-.711-1.727c-.474-.474-1.05-.745-1.727-.745h-13.445zm20.184 0h7.078V62.638c0-.677-.271-1.253-.745-1.727s-1.05-.745-1.727-.745h-4.911l-.711 3.183h3.658a1.23 1.23 0 0 1 .881.373c.237.237.373.508.373.847v1.253a1.23 1.23 0 0 1-.373.881c-.237.237-.542.339-.881.339h-2.642a2.46 2.46 0 0 0-1.761.745 2.35 2.35 0 0 0-.711 1.727v5.114c0 .711.237 1.287.711 1.761s1.084.711 1.761.711zm1.93-3.183c-.339 0-.643-.102-.881-.339s-.339-.542-.339-.881v-1.253c0-.339.102-.61.339-.847a1.23 1.23 0 0 1 .881-.373h1.964v3.691z"/><use xlink:href="#A" x="95.3"/><path d="M107.798 89.001v11.853h-1.202v-9.483l-4.657 7.976h-.593l-4.657-7.925v9.432h-1.202V89.001h1.033l5.148 8.788 5.097-8.788zm6.722 2.879q1.744 0 2.675.881.931.864.931 2.574v5.52h-1.151v-1.389q-.406.694-1.202 1.084-.779.389-1.863.389-1.49 0-2.371-.711-.881-.711-.881-1.88 0-1.135.813-1.829.83-.694 2.625-.694h2.828v-.542q0-1.151-.643-1.744-.643-.61-1.88-.61-.847 0-1.626.288-.779.271-1.338.762l-.542-.897q.677-.576 1.626-.881.948-.322 1.998-.322zm-.423 8.111q1.016 0 1.744-.457.728-.474 1.084-1.355v-1.456h-2.794q-2.286 0-2.286 1.592 0 .779.593 1.236.593.44 1.659.44zm11.887-8.111q1.253 0 2.269.576 1.016.559 1.592 1.592.576 1.033.576 2.354 0 1.321-.576 2.354-.576 1.033-1.592 1.609-1.016.576-2.269.576-1.118 0-2.015-.474-.881-.474-1.422-1.372v1.761h-1.151V88.29h1.202v5.351q.559-.864 1.422-1.304.881-.457 1.964-.457zm-.085 7.993q.931 0 1.693-.423.762-.44 1.185-1.236.44-.796.44-1.812 0-1.016-.44-1.812-.423-.796-1.185-1.219-.762-.44-1.693-.44-.948 0-1.71.44-.745.423-1.185 1.219-.423.796-.423 1.812 0 1.016.423 1.812.44.796 1.185 1.236.762.423 1.71.423zm6.977-11.583h1.202v12.565h-1.202z"/><use xlink:href="#B"/><path d="M154.652 90.085h-4.166v-1.084h9.584v1.084h-4.166v10.77h-1.253zm11.701 1.795q1.676 0 2.659.982.999.965.999 2.828v5.165h-1.202v-5.046q0-1.389-.694-2.117-.694-.728-1.981-.728-1.439 0-2.286.864-.83.847-.83 2.354v4.674h-1.202V88.29h1.202v5.215q.491-.779 1.355-1.202.864-.423 1.981-.423z"/><use xlink:href="#B" x="35.882"/><path d="M194.648 91.88q1.676 0 2.625.965.965.965.965 2.845v5.165h-1.202v-5.046q0-1.389-.677-2.117-.66-.728-1.88-.728-1.389 0-2.184.864-.796.847-.796 2.354v4.674h-1.202V95.81q0-1.389-.677-2.117-.66-.728-1.897-.728-1.372 0-2.184.864-.796.847-.796 2.354v4.674h-1.202V91.95h1.151v1.626q.474-.813 1.321-1.253.847-.44 1.947-.44 1.118 0 1.93.474.83.474 1.236 1.405.491-.881 1.405-1.372.931-.508 2.117-.508z"/><use xlink:href="#B" x="64.11"/></g><defs><path id="A" d="M111.625 77.099h3.183v-13.75h1.964c.305 0 .576.135.847.339a1.23 1.23 0 0 1 .373.881V77.1h3.183V62.604c0-.677-.271-1.253-.745-1.727-.508-.474-1.084-.711-1.727-.711h-7.078z"/><path id="B" d="M145.186 96.773h-7.451q.102 1.389 1.067 2.252.965.847 2.438.847.83 0 1.524-.288.694-.305 1.202-.881l.677.779q-.593.711-1.49 1.084-.881.373-1.947.373-1.372 0-2.438-.576-1.05-.593-1.643-1.626-.593-1.033-.593-2.337 0-1.304.559-2.337.576-1.033 1.558-1.609.999-.576 2.235-.576 1.236 0 2.218.576.982.576 1.541 1.609.559 1.016.559 2.337zm-4.301-3.861q-1.287 0-2.167.83-.864.813-.982 2.134h6.316q-.119-1.321-.999-2.134-.864-.83-2.167-.83z"/></defs></svg>