<svg xmlns="http://www.w3.org/2000/svg" xmlns:xlink="http://www.w3.org/1999/xlink" width="1152" height="576" viewBox="0 0 304.8 152.4" xmlns:v="https://vecta.io/nano"><path d="M0 0h304.8v120.65H0z" fill="#308878"/><g fill="#f4f0ec"><path d="M119.603 80.376l-.013-7.607-3.721 6.426h-.317l-3.721-6.401v7.582h-.635v-8.89h.546l3.975 6.871 3.975-6.871h.533l.013 8.89zm5.766-6.681q1.232 0 1.892.635.66.622.66 1.841v4.204h-.61v-1.181q-.317.584-.927.914-.61.317-1.46.317-1.105 0-1.753-.521-.635-.521-.635-1.372 0-.826.584-1.334.597-.521 1.892-.521h2.273v-.533q0-.927-.508-1.41-.495-.483-1.46-.483-.66 0-1.27.229-.597.229-1.016.61l-.317-.457q.495-.445 1.194-.686.698-.254 1.46-.254zm-.356 6.21q.826 0 1.397-.381.584-.381.876-1.105v-1.245h-2.261q-.978 0-1.422.356-.432.356-.432.978 0 .648.483 1.029.483.368 1.359.368zm8.852-6.21q.927 0 1.676.432.749.419 1.168 1.194.432.762.432 1.74 0 .978-.432 1.74-.419.762-1.168 1.194-.749.432-1.676.432-.889 0-1.613-.419-.711-.432-1.105-1.194v1.562h-.61v-9.423h.635v4.305q.394-.737 1.105-1.143.711-.419 1.588-.419zm-.038 6.159q.762 0 1.372-.356.61-.356.952-.991.356-.635.356-1.448 0-.813-.356-1.448-.343-.635-.952-.991-.61-.356-1.372-.356-.762 0-1.372.356-.597.356-.952.991-.343.635-.343 1.448 0 .813.343 1.448.356.635.952.991.61.356 1.372.356zm5.283-8.902h.635v9.423h-.635z"/><use xlink:href="#B"/><path d="M156.56 79.956q-.241.229-.61.356-.356.114-.749.114-.864 0-1.333-.47-.47-.483-.47-1.334v-4.331h-1.219v-.546h1.219v-1.448h.635v1.448h2.108v.546h-2.108v4.267q0 .648.305.991.317.33.927.33.622 0 1.029-.368zm5.003-6.261q1.245 0 1.969.724.724.724.724 2.083v3.874h-.635v-3.823q0-1.118-.571-1.702-.559-.584-1.575-.584-1.168 0-1.841.698-.673.698-.673 1.88v3.531h-.635v-9.423h.635v4.178q.343-.686 1.016-1.054.673-.381 1.588-.381z"/><use xlink:href="#B" x="24.46"/><path d="M182.722 73.695q1.232 0 1.93.724.711.724.711 2.083v3.874h-.635v-3.823q0-1.118-.546-1.702-.546-.584-1.524-.584-1.118 0-1.778.698-.648.698-.648 1.88v3.531h-.635v-3.823q0-1.118-.546-1.702-.546-.584-1.524-.584-1.118 0-1.778.698-.648.698-.648 1.88v3.531h-.635v-6.629h.61v1.422q.33-.698.978-1.079.66-.394 1.562-.394.902 0 1.524.406.635.406.902 1.194.33-.737 1.029-1.168.711-.432 1.651-.432z"/><use xlink:href="#B" x="45.568"/></g><g fill="#f4f0ec"><path d="M120.681 66.677q.074.149.074.223 0 .205-.149.335-.149.149-.353.149-.205 0-.353-.149-.13-.13-.13-.335 0-.149.037-.223l-3.59-16.687-3.609 16.687q.074.149.074.223 0 .205-.149.335-.149.149-.353.149-.205 0-.353-.149-.149-.13-.149-.335 0-.149.037-.223l-3.907-18.213q-.093-.056-.13-.167-.037-.112-.037-.223 0-.205.149-.335.149-.149.353-.149.205 0 .353.149.149.13.149.335 0 .13-.093.26l3.628 16.706 3.59-16.706q-.037-.056-.037-.13 0-.074 0-.13 0-.205.13-.335.149-.149.353-.149.205 0 .353.149.149.13.149.335 0 .112-.074.26l3.609 16.706 3.59-16.706q-.037-.056-.037-.13 0-.074 0-.13 0-.205.13-.335.149-.149.353-.149.205 0 .353.149.149.13.149.335 0 .26-.186.391zm6.809-.093q.112.149.112.316 0 .205-.149.335-.13.149-.335.149-.205 0-.353-.149-.149-.13-.149-.335 0-.167.112-.316V48.427q-.112-.186-.112-.353 0-.205.149-.335.149-.149.353-.149.205 0 .335.149.149.13.149.335 0 .167-.112.353zm0-23.199q.112.112.112.298 0 .205-.149.353-.13.149-.335.149-.205 0-.353-.149-.149-.149-.149-.353 0-.186.112-.298v-1.098q-.112-.186-.112-.353 0-.205.149-.335.149-.149.353-.149.205 0 .335.149.149.13.149.335 0 .167-.112.353z"/><use xlink:href="#C"/><use xlink:href="#D"/><path d="M149.963 66.584q.112.149.112.316 0 .205-.149.335-.13.149-.335.149-.205 0-.353-.149-.149-.13-.149-.335 0-.167.112-.316V48.725h-1.712q-.112.112-.298.112-.205 0-.353-.149-.149-.149-.149-.353 0-.205.149-.335.149-.149.353-.149.186 0 .298.112h1.712v-3.237q0-.781.186-1.544.186-.781.614-1.395.446-.614 1.153-1.005.726-.391 1.786-.446.167-.112.335-.112.205 0 .353.149.149.149.149.353 0 .205-.149.353-.149.149-.353.149-.149 0-.335-.13-.837.056-1.414.391-.558.316-.912.837-.335.502-.484 1.135-.149.633-.167 1.265v3.237h2.977q.167-.112.335-.112.205 0 .353.149.149.13.149.335 0 .205-.149.353-.149.149-.353.149-.167 0-.335-.112h-2.977z"/><use xlink:href="#C" x="24.91"/><path d="M170.185 66.584q.13.167.13.316 0 .205-.149.335-.149.149-.353.149-.205 0-.353-.149-.149-.13-.149-.335 0-.167.112-.316v-.8q-.502.726-1.265 1.172-.744.428-1.898.428-1.116 0-1.879-.372-.744-.391-1.209-1.005-.446-.614-.651-1.395-.186-.781-.186-1.6v-3.088q0-.819.167-1.6.186-.781.688-1.395.521-.614 1.47-.986.967-.391 2.53-.391h2.232v-3.59q0-.651-.167-1.302-.149-.651-.521-1.153-.353-.521-.967-.837-.614-.335-1.507-.335-.856 0-1.451.298-.595.279-.986.744-.372.446-.558 1.042-.186.595-.205 1.209.13.13.13.298 0 .167-.149.316-.149.149-.353.149-.205 0-.353-.149-.149-.149-.149-.316 0-.093.019-.186.037-.093.093-.149.056-.781.279-1.488.223-.726.688-1.284.484-.558 1.209-.893.726-.335 1.786-.335 1.116 0 1.86.391.763.372 1.209.986.465.614.651 1.395.205.781.205 1.6zm-7.088-3.572q0 .651.149 1.302.149.651.502 1.172.372.521.967.837.614.316 1.544.316.893 0 1.488-.279.595-.298.949-.763.372-.484.521-1.079.167-.614.205-1.246v-6.958h-2.232q-1.339 0-2.158.316-.8.316-1.246.837-.428.502-.558 1.153-.13.651-.13 1.302zm23.329 3.572q.112.149.112.316 0 .205-.149.335-.149.149-.353.149-.205 0-.353-.149-.13-.13-.13-.335 0-.167.112-.316V51.459q0-.558-.13-1.116-.13-.558-.446-1.005-.316-.446-.856-.726-.521-.279-1.321-.279-.763 0-1.284.26-.502.242-.819.651-.316.409-.465.93-.149.521-.167 1.06v15.348q.112.149.112.316 0 .205-.149.335-.149.149-.353.149-.205 0-.353-.149-.13-.13-.13-.335 0-.167.112-.316V51.459q0-.558-.13-1.116-.13-.558-.446-1.005-.316-.446-.856-.726-.521-.279-1.321-.279-.763 0-1.302.26-.521.242-.837.651-.316.409-.465.93-.13.521-.13 1.06v15.348q.112.149.112.316 0 .205-.149.335-.149.149-.353.149-.205 0-.353-.149-.13-.13-.13-.335 0-.167.112-.316V48.427q-.112-.186-.112-.353 0-.205.13-.335.149-.149.353-.149.205 0 .353.149.149.13.149.335 0 .167-.112.353v.633q.465-.707 1.116-1.079.651-.391 1.656-.391 1.339 0 2.065.558.744.558 1.06 1.414.428-1.023 1.284-1.488.874-.484 1.842-.484 1.005 0 1.674.335.67.335 1.06.874.409.54.577 1.228.167.688.167 1.395z"/><use xlink:href="#D" x="51.606"/></g><path d="M0 120.65h279.4v31.75H0z" fill="#191818"/><path d="M122.3 126.223v18.059l2.542 2.544H182.5v-18.06l-2.542-2.543zm1.905 1.905h53.848v14.249h-53.848zm6.062 11.076h-1.343l-1.547-7.902h.993l1.242 6.909 1.343-6.909h.971zm4.425 0q-.993 0-1.456-.418-.463-.429-.463-1.389v-2.032q0-.971.418-1.389.418-.418 1.389-.418h.305q.802 0 1.208.452.418.44.418 1.298v1.468h-2.777v.847q0 .35.214.542.214.192.632.192h1.569v.847zm.881-3.274v-.847q0-.294-.192-.485-.192-.192-.485-.192h-.429q-.406 0-.576.192-.158.181-.158.542v.79zm2.574-2.371h.903v.305q.373-.305.903-.305h.824v.903h-.937q-.373 0-.553.248-.181.248-.181.485v4.008h-.96zm6.683 4.234q0 .711-.44 1.061-.429.35-1.253.35h-1.456v-.847h1.569q.305 0 .463-.124.158-.135.158-.384v-.598q0-.508-.485-.508h-.192q-.79 0-1.185-.339-.384-.35-.384-1.095v-.327q0-.756.429-1.084.429-.339 1.264-.339h1.287v.847h-1.4q-.282 0-.452.135-.169.124-.169.373v.406q0 .26.147.384.158.124.395.124h.158q.756 0 1.151.373.395.361.395 1.084zm1.467-5.475v-1.016h1.072v1.016zm.056 6.886v-5.644h.96v5.644zm6.639-1.806q0 .948-.474 1.377-.463.429-1.445.429h-.147q-.982 0-1.456-.429-.463-.429-.463-1.377v-2.032q0-.948.463-1.377.474-.429 1.456-.429h.147q.982 0 1.445.429.474.429.474 1.377zm-.96-2.258q0-.35-.214-.542-.214-.192-.632-.192h-.373q-.418 0-.632.192-.214.192-.214.542v2.484q0 .35.214.542.214.192.632.192h.373q.418 0 .632-.192.214-.192.214-.542zm2.653-1.581h.903v.271q.35-.271.903-.271h.294q.914 0 1.355.429.452.429.452 1.377v3.838h-.96v-4.064q0-.339-.203-.531-.192-.203-.531-.203h-.519q-.373 0-.553.203-.181.192-.181.418v4.177h-.96zm8.726 5.645v-.847h1.366v-6.164l-1.479.587v-.914l1.366-.564h1.072v7.056h1.118v.847zm5.001 0v-1.129h1.129v1.129zm6.469-1.919q0 .937-.519 1.434-.508.485-1.377.485h-.113q-.869 0-1.389-.485-.508-.497-.508-1.434v-4.064q0-.948.508-1.434.508-.485 1.389-.485h.113q.881 0 1.389.485.508.485.508 1.434zm-.96-4.278q0-.35-.271-.598-.26-.26-.666-.26h-.113q-.406 0-.677.26-.26.248-.26.598v4.493q0 .35.26.61.271.248.677.248h.113q.406 0 .666-.248.271-.26.271-.61zM279.4 120.65h25.4v31.75h-25.4z" fill="#f4f0ec"/><defs ><path id="B" d="M148.025 77.213h-5.702q.025.775.394 1.384.368.597.991.927.635.33 1.422.33.648 0 1.194-.229.559-.241.927-.698l.368.419q-.432.521-1.092.8-.648.279-1.41.279-.991 0-1.765-.432-.775-.432-1.219-1.194-.432-.762-.432-1.74 0-.965.406-1.727.419-.775 1.143-1.207.724-.432 1.626-.432.902 0 1.613.432.724.419 1.13 1.181.419.762.419 1.727zm-3.15-2.959q-.698 0-1.257.317-.559.305-.902.876-.33.559-.381 1.27h5.08q-.038-.711-.381-1.27-.343-.559-.902-.876-.559-.317-1.257-.317z"/><path id="C" d="M131.378 66.584q.112.149.112.316 0 .205-.149.335-.149.149-.353.149-.205 0-.353-.149-.13-.13-.13-.335 0-.167.112-.316V48.427q-.112-.186-.112-.353 0-.205.13-.335.149-.149.353-.149.205 0 .353.149.149.13.149.335 0 .167-.112.353v1.321q.521-.893 1.265-1.339.744-.446 1.898-.446h.651q.167-.112.335-.112.205 0 .353.149.149.13.149.335 0 .205-.149.353-.149.149-.353.149-.167 0-.335-.112h-.651q-.8 0-1.395.316-.595.316-.986.837-.391.521-.595 1.172-.186.633-.186 1.302z"/><path id="D" d="M145.443 56.315h-7.088v6.697q0 .67.149 1.321.167.651.521 1.172.372.502.986.819.614.316 1.507.316.874 0 1.47-.279.595-.279.949-.726.372-.465.54-1.06.167-.595.205-1.228-.056-.056-.093-.149-.037-.093-.037-.149 0-.205.149-.353.149-.149.353-.149.205 0 .353.149.149.149.149.353 0 .056-.037.149-.019.093-.074.149-.056.781-.279 1.507-.205.726-.651 1.284-.446.558-1.191.893-.726.353-1.805.353-1.116 0-1.879-.372-.744-.391-1.209-1.005-.446-.614-.651-1.395-.186-.781-.186-1.6v-11.05q0-.819.186-1.6.205-.781.651-1.395.465-.614 1.209-.986.763-.391 1.879-.391 1.116 0 1.86.391.744.372 1.209.986.465.614.651 1.395.205.781.205 1.6zm-.763-.763v-3.59q0-.651-.149-1.302-.149-.651-.521-1.153-.353-.521-.967-.837-.614-.335-1.525-.335-.893 0-1.507.335-.614.316-.986.837-.353.502-.521 1.153-.149.651-.149 1.302v3.59z"/></defs></svg>